<svg width="102" height="102" viewBox="0 0 102 102" fill="none" xmlns="http://www.w3.org/2000/svg">
<path d="M0 22.3731C0 10.0168 10.0168 0 22.3731 0H78.7532C91.1096 0 101.126 10.0168 101.126 22.3731V78.3058C101.126 90.6621 91.1096 100.679 78.7532 100.679H22.3731C10.0168 100.679 0 90.6621 0 78.3058V22.3731Z" fill="#1C1C1C"/>
<path d="M48.6379 19.2684L30.1314 1H22.3731C10.0168 1 0 11.0168 0 23.3731V79.3058C0 88.4411 5.47522 96.2977 13.3231 99.7729C13.659 89.8751 17.7346 82.6564 25.5501 78.1168C30.0284 75.5343 36.6142 73.6897 45.3075 72.5829L52.9734 71.6342C57.1356 71.1071 60.1124 70.4483 61.9037 69.6578C65.1176 68.2874 66.7245 66.1529 66.7245 63.2542C66.7245 59.723 65.4864 57.2986 63.0101 55.981C60.5866 54.6106 57.0039 53.9255 52.2621 53.9255C46.9408 53.9255 43.1737 55.2431 40.9609 57.8783C39.3803 59.8284 38.3266 62.4636 37.7997 65.784H16.0665C16.5407 58.2472 18.6482 52.0545 22.3889 47.2057C28.3425 39.6162 38.5636 35.8215 53.0524 35.8215C62.4833 35.8215 70.8604 37.6925 78.1838 41.4345C85.5072 45.1765 89.1689 52.2389 89.1689 62.6217V99.1116C96.2791 95.3647 101.126 87.9013 101.126 79.3058V23.3731C101.126 11.0168 91.1096 1 78.7533 1H53.1911L64.918 19.2684H48.6379Z" fill="white"/>
<path d="M64.1639 101.679C65.7221 98.83 66.5493 95.1133 66.6455 90.5287V82.1487C65.223 83.0447 63.7741 83.7826 62.2989 84.3623C60.8763 84.8894 58.9006 85.39 56.3716 85.8644L51.3138 86.8131C46.572 87.6563 43.1737 88.6841 41.1189 89.8963C37.6416 91.9517 35.903 95.1404 35.903 99.4621C35.903 100.246 35.9478 100.985 36.0374 101.679H64.1639Z" fill="white"/>
</svg>
