<svg width="102" height="101" viewBox="0 0 102 101" fill="none" xmlns="http://www.w3.org/2000/svg">
<path d="M0 22.3731C0 10.0168 10.0168 0 22.3731 0H78.7532C91.1096 0 101.126 10.0168 101.126 22.3731V78.3058C101.126 90.6621 91.1096 100.679 78.7532 100.679H22.3731C10.0168 100.679 0 90.6621 0 78.3058V22.3731Z" fill="white"/>
<path d="M48.6379 18.2684L30.1314 0H22.3731C10.0168 0 0 10.0168 0 22.3731V78.3058C0 87.4411 5.47522 95.2977 13.3231 98.7729C13.659 88.8751 17.7346 81.6564 25.5501 77.1168C30.0284 74.5343 36.6142 72.6897 45.3075 71.5829L52.9734 70.6342C57.1356 70.1071 60.1124 69.4483 61.9037 68.6578C65.1176 67.2874 66.7245 65.1529 66.7245 62.2542C66.7245 58.723 65.4864 56.2986 63.0101 54.981C60.5866 53.6106 57.0039 52.9255 52.2621 52.9255C46.9408 52.9255 43.1737 54.2431 40.9609 56.8783C39.3803 58.8284 38.3266 61.4636 37.7997 64.784H16.0665C16.5407 57.2472 18.6482 51.0545 22.3889 46.2057C28.3425 38.6162 38.5636 34.8215 53.0524 34.8215C62.4833 34.8215 70.8604 36.6925 78.1838 40.4345C85.5072 44.1765 89.1689 51.2389 89.1689 61.6217V98.1116C96.2791 94.3647 101.126 86.9013 101.126 78.3058V22.3731C101.126 10.0168 91.1096 0 78.7533 0H53.1911L64.918 18.2684H48.6379Z" fill="black"/>
<path d="M64.1639 100.679C65.7221 97.83 66.5493 94.1133 66.6455 89.5287V81.1487C65.223 82.0447 63.7741 82.7826 62.2989 83.3623C60.8763 83.8894 58.9006 84.39 56.3716 84.8644L51.3138 85.8131C46.572 86.6563 43.1737 87.6841 41.1189 88.8963C37.6416 90.9517 35.903 94.1404 35.903 98.4621C35.903 99.2459 35.9478 99.9848 36.0374 100.679H64.1639Z" fill="black"/>
</svg>
